<svg width="500" height="427" viewBox="0 0 500 427" fill="none" xmlns="http://www.w3.org/2000/svg">
<path d="M202.897 192.719C158.53 129.791 127.001 104.323 41.6667 101.808" stroke="#00092C" stroke-width="20" stroke-linecap="round"/>
<path d="M250 179C250 179 272.5 160.159 250 118.944C227.5 77.729 250 53 250 53" stroke="#00092C" stroke-width="20" stroke-linecap="round"/>
<path d="M285.546 200.402C347.907 219.334 381.526 139.587 443.025 100.619" stroke="#00092C" stroke-width="20" stroke-linecap="round"/>
<path d="M288.295 237.353C392.579 223.012 392.361 301.882 459.041 343.229" stroke="#00092C" stroke-width="20" stroke-linecap="round"/>
<path d="M251.389 273.114C251.389 313.178 295.139 338.399 251.389 375.705" stroke="#00092C" stroke-width="20" stroke-linecap="round"/>
<path d="M212.402 239.651C212.877 296.302 108.565 303.498 42.031 344.408" stroke="#00092C" stroke-width="20" stroke-linecap="round"/>
<ellipse cx="41.6667" cy="343.818" rx="41.6667" ry="41.5909" fill="#5463FF"/>
<ellipse cx="250" cy="385.409" rx="41.6667" ry="41.5909" fill="#F10086"/>
<ellipse cx="458.333" cy="343.818" rx="41.6667" ry="41.5909" fill="#00C897"/>
<ellipse cx="458.333" cy="94.2727" rx="41.6667" ry="41.5909" fill="#764AF1"/>
<ellipse cx="250" cy="41.5909" rx="41.6667" ry="41.5909" fill="#F10086"/>
<ellipse cx="41.6667" cy="94.2727" rx="41.6667" ry="41.5909" fill="#4D77FF"/>
<ellipse cx="250" cy="219.045" rx="55.5556" ry="55.4545" fill="#00092C"/>
</svg>
