<svg width="16" height="17" viewBox="0 0 16 17" fill="none" xmlns="http://www.w3.org/2000/svg">
<g clip-path="url(#clip0_78_10)">
<path d="M6.06462 9.18336C7.51831 7.73982 9.09694 6.36899 10.4626 5.19716C11.0835 4.66169 11.6521 4.0686 12.161 3.42581C12.2069 3.36843 12.2667 3.29192 12.3222 3.2097C12.3802 3.13686 12.4097 3.04549 12.4054 2.95252C12.4011 2.85955 12.3633 2.77129 12.2988 2.70411C12.2419 2.6379 12.163 2.59453 12.0766 2.58199C11.9902 2.56945 11.9021 2.5886 11.8287 2.6359C11.6819 2.71492 11.5422 2.80691 11.4117 2.91075C10.9911 3.25404 10.5774 3.60379 10.2282 3.9007C8.33258 5.50856 6.52361 7.21583 4.80891 9.01534C4.51635 9.32309 4.25047 9.66375 3.99332 9.99298C3.87782 10.1409 3.75835 10.2939 3.63838 10.4414C3.28017 10.8819 3.13491 11.4194 3.19427 12.0849C3.2529 12.7419 3.58424 13.3384 4.08038 13.6804C4.53878 13.9966 5.10445 14.0726 5.71623 13.9003C6.21178 13.7671 6.67591 13.5368 7.08167 13.2228C7.20058 13.1285 7.32008 13.0345 7.44004 12.9408C8.00434 12.4983 8.58849 12.0408 9.10185 11.5266C10.4356 10.1914 11.7658 8.80804 13.0519 7.47083C13.4037 7.10506 13.7556 6.73948 14.1077 6.37412C14.5 5.97228 14.8206 5.50623 15.0556 4.99618C15.4754 4.07136 15.5631 3.20671 15.3238 2.35275C15.0736 1.45996 14.4788 0.694737 13.7327 0.305787C13.0218 -0.064989 12.1836 -0.0991306 11.3096 0.206356C10.5577 0.473942 9.84907 0.850323 9.20636 1.32351C7.81204 2.33054 6.74288 3.21675 5.84155 4.1124C4.38157 5.56326 2.9064 7.04775 1.47991 8.48321L1.19346 8.77147C0.65269 9.31562 0.33354 9.87523 0.217603 10.4824C0.152526 10.8235 0.106637 11.1732 0.0623733 11.5113C0.0423665 11.6637 0.0224461 11.8161 0.000753553 11.9681C-0.00157566 11.9845 0.00152905 12.0012 0.00959194 12.0155C0.0176555 12.03 0.0302224 12.0414 0.0453756 12.0479C0.0453756 12.0681 0.0447746 12.0884 0.0444815 12.1086C0.0429425 12.2046 0.0413925 12.3039 0.0479882 12.4026C0.0531914 12.481 0.0660903 12.5584 0.0784755 12.6332C0.0864635 12.6815 0.0945469 12.7298 0.100483 12.7783C0.292929 14.3564 1.1442 15.5987 2.63071 16.4707C3.11544 16.7522 3.66727 16.8972 4.22774 16.8904C4.36292 16.8902 4.498 16.8829 4.63242 16.8685C5.49132 16.7785 6.25548 16.435 6.88961 16.1109C8.0157 15.5426 9.06946 14.8413 10.0284 14.0218C11.0296 13.1566 12.0226 12.2486 12.9829 11.371C13.2279 11.1469 13.4732 10.9231 13.7185 10.6993C14.0896 10.3612 14.4382 10.0095 14.8228 9.61766C14.9447 9.49683 15.0448 9.35578 15.1183 9.20065C15.2425 8.92491 15.2136 8.67094 15.0366 8.48555C14.8297 8.26843 14.573 8.21297 14.3326 8.33365C14.1228 8.42862 13.9267 8.55143 13.7496 8.69864C12.7759 9.58095 11.8187 10.4693 11.0108 11.222C10.0811 12.088 9.16327 12.9258 8.15794 13.6548C7.28673 14.2866 6.32883 14.9313 5.2275 15.3674C4.13849 15.7986 3.20153 15.5899 2.36352 14.7299C1.70666 14.0558 1.35395 13.2966 1.28535 12.4104C1.18276 11.08 1.44927 10.2103 2.1778 9.50247C3.06066 8.64471 3.94333 7.75778 4.79695 6.90002C5.32592 6.36855 5.87284 5.81891 6.41419 5.28187C7.31275 4.39054 8.33207 3.53021 9.6221 2.5744C10.1653 2.1719 10.8995 1.67369 11.762 1.39151C12.2435 1.23411 12.6146 1.22035 12.9655 1.34668C13.7267 1.62095 14.3439 2.67252 14.2357 3.51035C14.1434 4.22567 13.8333 4.86363 13.2878 5.46075C12.9522 5.82823 12.605 6.18853 12.2799 6.52325C11.9428 6.87038 11.6062 7.21816 11.2701 7.5666C10.3506 8.51845 9.39968 9.50284 8.44397 10.4497C7.91793 10.971 7.33539 11.4554 6.77214 11.9239C6.66129 12.0161 6.55051 12.1085 6.43985 12.2009C6.1113 12.4784 5.72875 12.6848 5.31639 12.807C4.90145 12.929 4.59565 12.8153 4.40723 12.4691C4.16187 12.018 4.15388 11.6099 4.38275 11.2217C4.84269 10.4411 5.46273 9.78078 6.06462 9.18336Z" fill="#333A56"/>
</g>
<defs>
<clipPath id="clip0_78_10">
<rect width="15.5364" height="17" fill="white"/>
</clipPath>
</defs>
</svg>
