<svg width="23" height="20" viewBox="0 0 23 20" fill="none" xmlns="http://www.w3.org/2000/svg">
<g clip-path="url(#clip0_50_81)">
<path d="M1.23984 14.2997C1.53601 14.1113 1.85209 13.9556 2.18228 13.8354C2.3337 13.7737 2.48976 13.7099 2.6464 13.6388L2.67956 13.1619C2.7078 12.758 2.73806 12.326 2.76658 11.8934C2.78592 11.6003 2.80333 11.3069 2.82073 11.0138C2.85641 10.4147 2.89344 9.79504 2.94556 9.1869C2.98539 8.72132 3.04496 8.66977 3.52077 8.67987C4.2357 8.69602 4.96243 8.71775 5.66527 8.73871C6.44082 8.76198 7.24287 8.78593 8.03167 8.80247C8.61771 8.81468 9.19631 8.81208 9.80913 8.80862C10.0702 8.80727 10.3339 8.80593 10.6027 8.80574L10.5083 5.75093C8.96773 5.51324 8.04946 4.6019 7.77834 3.04151C7.57384 1.8643 8.13813 0.88574 9.25094 0.487663C9.6875 0.327198 10.1366 0.203019 10.5939 0.11641C11.374 -0.0247434 11.9924 0.0917927 12.4321 0.462562C13.1394 1.05939 13.5827 1.69065 13.788 2.39247C14.1175 3.52074 13.7702 4.50698 12.8101 5.16958C12.6244 5.28948 12.4283 5.39265 12.2241 5.47785C12.1386 5.51631 12.0531 5.55478 11.9695 5.59642C11.8825 5.63901 11.7945 5.67843 11.7483 5.69882V8.9367C12.1737 8.96709 12.593 8.99644 13.0062 9.02477C13.9971 9.09342 14.9329 9.15823 15.8826 9.23631C16.7335 9.30592 17.5969 9.3916 18.432 9.47448C18.7508 9.50616 19.0695 9.53753 19.3882 9.56862C19.7591 9.60458 19.9559 9.80744 19.9572 10.1551C19.9585 10.5359 19.9521 10.8495 19.9369 11.1421C19.9014 11.8237 19.862 12.5051 19.8229 13.183L19.7789 13.9484C20.9107 14.5416 21.6325 15.349 21.985 16.4158C22.2376 17.1806 22.2006 17.9447 21.8806 18.5663C21.7275 18.8579 21.5166 19.1157 21.2607 19.3242C21.0048 19.5327 20.7092 19.6876 20.3916 19.7796C20.0275 19.897 19.6473 19.9576 19.2646 19.9595C18.4984 19.9541 17.755 19.6994 17.148 19.2345C15.8427 18.2708 15.7622 16.6599 16.1218 15.4737C16.4154 14.505 17.1103 13.94 18.1871 13.7944C18.2959 13.7797 18.4051 13.7666 18.5213 13.7527L18.651 13.7371L18.7796 10.5246C17.8477 10.3011 12.3744 9.94244 11.6653 10.0567L11.847 13.6757L11.9348 13.7084C12.0196 13.74 12.1025 13.771 12.1862 13.8012C12.982 14.0873 13.6546 14.6373 14.091 15.3583C14.3808 15.8348 14.518 16.3877 14.4841 16.9436C14.4503 17.4995 14.2471 18.0319 13.9015 18.47C13.0749 19.5277 11.499 19.9831 10.0691 19.578C8.87849 19.2406 8.0103 18.1515 7.85724 16.8034C7.69654 15.3877 8.26382 14.4448 9.59148 13.9207C9.75054 13.8579 9.91723 13.8097 10.0784 13.7629C10.1534 13.7413 10.2286 13.7196 10.3029 13.6963L10.6413 13.5905L10.767 9.976C9.25132 9.79937 4.48458 9.76523 3.89544 9.88677V10.6062C3.89544 11.4982 3.89544 12.3814 3.8969 13.2645C3.89864 13.3417 3.90463 13.4187 3.91488 13.4952C3.91855 13.5281 3.92252 13.5625 3.9261 13.5983L4.01844 13.6291C4.10004 13.6564 4.18155 13.6835 4.26316 13.7103C4.88846 13.9114 5.44704 14.2777 5.87905 14.7703C6.18943 15.1373 6.40872 15.5715 6.51933 16.0381C6.62995 16.5048 6.62869 16.9908 6.51576 17.4569C6.3626 18.0346 5.94528 18.8048 4.8288 19.1929C3.4002 19.6894 2.06065 19.4081 0.955185 18.3793C0.657087 18.1064 0.423386 17.7712 0.270905 17.3979C0.118328 17.0247 0.0507412 16.6224 0.0728836 16.22C0.110594 15.6859 0.344681 14.9193 1.23984 14.2997ZM1.72252 17.543C2.19679 18.0339 2.81512 18.2764 3.72653 18.3292C3.76269 18.3248 3.80107 18.3208 3.84101 18.3166C3.93654 18.307 4.03536 18.2965 4.13388 18.2775C4.75038 18.1594 5.22155 17.8417 5.46057 17.3833C5.69959 16.9249 5.68876 16.3598 5.43079 15.7916C5.11316 15.0923 4.57344 14.6292 3.86992 14.4524C3.7829 14.4315 3.69365 14.4212 3.60412 14.422C3.29954 14.435 3.00028 14.5058 2.72249 14.6305C2.34144 14.8114 1.99722 15.0606 1.70724 15.3658C1.09036 15.9794 1.09655 16.8951 1.72252 17.543ZM11.1388 14.6761C10.9841 14.7338 10.8232 14.7837 10.6679 14.8322C10.4175 14.9042 10.1722 14.993 9.93386 15.0979C9.33322 15.3798 9.06539 15.8162 9.06539 16.5129C9.06539 17.7052 9.76224 18.4892 10.9778 18.6646C12.1038 18.8267 13.174 18.2044 13.467 17.2165C13.5437 16.9888 13.5691 16.7471 13.5414 16.5085C13.5138 16.2698 13.4337 16.0402 13.307 15.8358C13.1289 15.5648 12.9244 15.3118 12.6963 15.0806C12.3766 14.7429 12.0346 14.5753 11.661 14.5753C11.4823 14.5775 11.3054 14.6117 11.1388 14.6761ZM11.7682 1.0865C11.6412 1.02062 11.5012 0.983482 11.3581 0.977761C11.3205 0.977415 11.283 0.981742 11.2465 0.990636C10.7218 1.12344 10.2057 1.28795 9.70113 1.48324C9.11489 1.71141 8.83275 2.17892 8.88506 2.83545C8.9833 4.06478 9.88 4.83747 11.2259 4.85315C11.2711 4.84065 11.3277 4.82757 11.3921 4.81266C11.6133 4.76772 11.8296 4.70165 12.038 4.61536C12.9948 4.18574 13.3158 3.37968 12.9189 2.40382C12.6709 1.79267 12.2836 1.34948 11.7682 1.0865ZM20.0642 15.1779C19.8098 15.0198 19.5148 14.9385 19.2149 14.9436C18.9242 14.9457 18.6372 15.0084 18.3724 15.1275C17.7826 15.389 17.382 15.8595 17.2997 16.3858C17.2782 16.5232 17.2692 16.6617 17.262 16.7729C17.2592 16.8151 17.2567 16.8528 17.254 16.8842C17.2637 17.7766 17.6794 18.404 18.4581 18.6985C19.1379 18.9556 19.7072 18.9665 20.2494 18.7327C20.8815 18.4601 21.1957 17.9679 21.1576 17.3097C21.1145 16.5623 20.7927 15.8914 20.1739 15.2586C20.1449 15.2315 20.113 15.2077 20.0787 15.1875L20.0642 15.1779Z" fill="#333A56"/>
</g>
<defs>
<clipPath id="clip0_50_81">
<rect width="22.2388" height="20" fill="white" transform="matrix(-1 0 0 1 22.2388 0)"/>
</clipPath>
</defs>
</svg>
