<svg width="23" height="18" viewBox="0 0 23 18" fill="none" xmlns="http://www.w3.org/2000/svg">
<g clip-path="url(#clip0_50_85)">
<path d="M22.3092 9.73979C22.3189 8.01177 22.265 6.50037 22.1445 5.11937C21.9759 3.18604 20.9008 2.12094 19.0357 2.03844C18.2438 2.00344 17.4375 2.03012 16.6577 2.05512C16.3033 2.06671 15.9368 2.07878 15.5766 2.08478C15.4601 2.0867 15.3444 2.0861 15.2446 2.0856H15.191C15.1503 1.96935 15.1114 1.85602 15.0732 1.74486C14.9794 1.47261 14.8902 1.21503 14.7929 0.959866C14.7892 0.947116 14.7858 0.934207 14.7822 0.92154C14.7363 0.744973 14.6415 0.58497 14.509 0.459949C14.2637 0.174866 13.9251 0.0364349 13.4951 0.0473515C12.9115 0.0626015 12.3179 0.0734339 11.7438 0.0838507C10.8642 0.0998507 9.95452 0.116362 9.06016 0.149362C8.57988 0.167028 8.31699 0.250878 8.14681 0.464628C8.03481 0.531108 7.94307 0.62698 7.88152 0.741931C7.66845 1.19586 7.54604 1.68717 7.52117 2.18818H7.37673C7.14727 2.18818 6.93537 2.18754 6.72338 2.18887C6.46948 2.19029 6.21548 2.19029 5.9615 2.19037C5.3435 2.19037 4.70435 2.19037 4.07587 2.21153C3.31028 2.2398 2.55677 2.41149 1.85429 2.71777C0.865786 3.14277 0.371693 3.84101 0.343666 4.85151C0.324705 5.53826 0.298097 6.23652 0.272399 6.91169C0.25011 7.49686 0.227016 8.10196 0.20897 8.69746C0.199322 9.01779 0.19879 9.34354 0.198208 9.65854C0.19721 10.2121 0.19615 10.7846 0.145337 11.3413C0.0166802 12.75 0.0393749 13.8805 0.216766 14.8987C0.377109 15.8186 0.807235 16.562 1.46092 17.0487C2.05603 17.5044 2.77864 17.7618 3.52725 17.7848C3.91835 17.7959 4.30941 17.808 4.70046 17.821C5.67207 17.8522 6.67669 17.8845 7.66561 17.8922C9.76099 17.9089 11.7259 17.9172 13.6125 17.9172C14.4768 17.9172 15.3264 17.9155 16.1611 17.912C17.1045 17.9083 18.1238 17.8647 19.2779 17.7787C20.7333 17.6704 21.7224 16.8704 22.1374 15.4645C22.2787 14.9939 22.354 14.5058 22.3613 14.0145C22.3653 13.2998 22.3501 12.5736 22.3355 11.8714C22.3203 11.1724 22.3049 10.45 22.3092 9.73979ZM21.0896 12.0144C21.0972 12.6945 21.1052 13.3748 21.1135 14.055C21.12 14.5845 20.9961 15.1075 20.7528 15.5776C20.5311 16.011 20.2039 16.2682 19.7777 16.3416C19.3092 16.4355 18.834 16.4914 18.3566 16.5088C16.6673 16.5214 14.9494 16.5195 13.2879 16.5179C12.6877 16.5172 12.0875 16.5168 11.4874 16.5165C10.8739 16.5165 10.2606 16.5168 9.64764 16.5173C8.16643 16.5184 6.63511 16.5196 5.12916 16.5113C4.56344 16.5071 3.99835 16.473 3.43625 16.4089C2.39227 16.2912 1.65069 15.5625 1.45267 14.4596C1.23262 13.2346 1.25783 11.9779 1.28212 10.7629C1.28636 10.5508 1.29045 10.3389 1.29361 10.127C1.29865 9.76904 1.30624 9.40979 1.31639 9.04946C1.53974 9.09346 1.76611 9.12054 1.99353 9.13037C2.5366 9.14854 3.08856 9.14704 3.62248 9.14562C3.8768 9.14504 4.13102 9.14421 4.38509 9.14562C4.48381 9.14621 4.58126 9.15187 4.69412 9.15837C4.72439 9.16021 4.75542 9.16196 4.78752 9.16371C4.78752 9.26562 4.78688 9.36479 4.78638 9.46196C4.78514 9.72862 4.78386 9.98046 4.7891 10.2327C4.80033 10.7715 5.02329 11.0281 5.53459 11.091C6.01789 11.1437 6.50383 11.1684 6.98998 11.165H7.00719C7.94305 11.165 8.29626 10.8043 8.30799 9.83996C8.31007 9.66996 8.30951 9.49971 8.30893 9.32621V9.16596H14.5575C14.5575 9.18629 14.5575 9.20637 14.5575 9.22612C14.5569 9.32987 14.5562 9.42612 14.559 9.52179C14.5642 9.69737 14.5694 9.84371 14.5847 9.99546C14.642 10.5661 14.8924 10.809 15.4496 10.8339C15.8941 10.8537 16.3703 10.8505 16.8646 10.8236C17.3477 10.7976 17.6403 10.5253 17.7107 10.036C17.7411 9.82379 17.7543 9.60696 17.7682 9.37762C17.7734 9.29304 17.7787 9.20571 17.7848 9.11462L18.4814 9.11504C19.1681 9.11546 19.84 9.11604 20.5117 9.11279C20.6929 9.11379 20.8739 9.10546 21.0542 9.08779C21.0675 10.0712 21.0786 11.0522 21.0896 12.0144ZM9.86228 1.19994C10.4374 1.17869 11.0206 1.1707 11.593 1.16495C12.1987 1.17987 12.821 1.19471 13.4346 1.20437C13.4859 1.20423 13.5369 1.20959 13.587 1.22037C13.6452 1.28275 13.6827 1.36176 13.6941 1.44644C13.7329 1.6146 13.7834 1.77982 13.8452 1.94087C13.8567 2.01342 13.8693 2.08591 13.883 2.15836H8.6761C8.88643 1.23619 8.90031 1.23561 9.8627 1.20002L9.86228 1.19994ZM16.6346 9.16496C16.6314 9.19187 16.6284 9.21854 16.6253 9.24512C16.6133 9.37862 16.5917 9.51104 16.5608 9.64146C16.5401 9.69571 16.4995 9.74004 16.4473 9.76529C16.1961 9.79237 15.9426 9.80437 15.6744 9.81712C15.6033 9.82046 15.5313 9.82387 15.4581 9.82762L15.3833 9.16496H16.6346ZM7.09954 9.17421V9.97062H5.81003L5.70534 9.21562C5.97646 9.11671 6.63381 9.09654 7.09995 9.17421H7.09954ZM20.9393 7.85204C20.9114 7.85404 20.8835 7.85596 20.8556 7.85712C20.7096 7.86312 20.5637 7.87018 20.4178 7.87726C20.101 7.8926 19.7733 7.90837 19.4517 7.91262C17.9563 7.93251 16.4609 7.95096 14.9655 7.96796C13.6308 7.9838 12.2961 8.00012 10.9615 8.01696C8.4024 8.05029 5.84335 8.0853 3.28441 8.12201L1.3429 8.1492C1.36378 7.52836 1.38807 6.91003 1.41211 6.30203C1.42475 5.9832 1.43721 5.66444 1.44946 5.34577C1.49554 4.13227 1.71723 3.84877 2.84528 3.56126C3.54005 3.38158 4.25362 3.28496 4.97107 3.27342C6.46022 3.25534 7.97474 3.25787 9.43956 3.2602C10.6325 3.2622 11.8662 3.26428 13.0796 3.25512C13.7699 3.25003 14.47 3.21843 15.1473 3.18793C15.686 3.16368 16.243 3.13861 16.7904 3.12711C17.5412 3.11119 18.3177 3.09485 19.0788 3.1741C20.1949 3.29018 20.7089 3.80985 20.8525 4.9676C20.9404 5.59968 20.9954 6.23594 21.0172 6.87376C21.0234 7.19722 21.0292 7.52151 21.0345 7.84662C21.0027 7.84779 20.9708 7.85004 20.9397 7.85204H20.9393Z" fill="#333A56"/>
</g>
<defs>
<clipPath id="clip0_50_85">
<rect width="22.3714" height="18" fill="white"/>
</clipPath>
</defs>
</svg>
