<svg width="23" height="22" viewBox="0 0 23 22" fill="none" xmlns="http://www.w3.org/2000/svg">
<g clip-path="url(#clip0_50_78)">
<path d="M21.4177 7.09864C21.0643 6.71236 20.6892 6.34569 20.2941 6.00043C20.1588 5.87766 20.0236 5.75507 19.8904 5.63085C19.5233 5.28863 19.1546 4.94783 18.7846 4.60845C18.1972 4.0676 17.5899 3.50839 17.002 2.94924C16.2535 2.23782 15.2456 1.32396 14.0803 0.565275C13.2882 0.049226 12.4557 -0.0765183 11.6059 0.189564C11.1859 0.32093 10.7446 0.470217 10.372 0.717921C9.2735 1.44808 8.33289 2.11658 7.49643 2.76137C6.47867 3.54603 5.45491 4.35705 4.46497 5.14136C3.67952 5.76361 2.86718 6.40712 2.06315 7.03353C1.24074 7.67407 0.730565 8.38515 0.503801 9.20728C0.335504 9.79287 0.239545 10.3961 0.217987 11.0041C0.203664 11.6265 0.221685 12.2588 0.239149 12.8702C0.253749 13.3854 0.268996 13.9182 0.264653 14.4412C0.263544 14.5821 0.26296 14.7231 0.262899 14.8646C0.261144 15.6403 0.259387 16.4423 0.113478 17.1994C-0.16374 18.6365 0.399934 19.8335 1.78797 20.7575C2.79898 21.4301 3.98002 21.5663 5.12206 21.698C6.71293 21.8775 8.31324 21.9647 9.91461 21.959C10.7405 21.959 11.6016 21.939 12.5092 21.8993L14.0801 21.8398C15.4015 21.7897 16.8038 21.7367 18.2057 21.6828C19.0682 21.6576 19.9224 21.5104 20.7419 21.2458C21.5384 20.9838 22.1188 20.4818 22.4186 19.794C22.7102 19.1261 22.8605 18.5482 22.8778 18.0271C22.9618 15.3303 22.8677 12.6309 22.596 9.94587C22.4839 8.81734 22.0874 7.85959 21.4177 7.09864ZM8.3365 20.0594C8.35562 19.8602 8.37346 19.6719 8.37845 19.484C8.39977 18.634 8.4195 17.7838 8.43768 16.9335C8.45567 16.1277 8.47434 15.3219 8.49368 14.5163C8.50708 13.9753 8.52713 13.5621 8.55892 13.1763C8.60706 12.5892 8.81525 12.3525 9.38374 12.2365C10.0098 12.0981 10.6465 12.0105 11.2873 11.9748C11.7999 11.9567 12.3254 11.978 12.8332 11.9991C13.1468 12.012 13.4708 12.0255 13.7905 12.0294C14.0794 12.033 14.2222 12.1561 14.2675 12.4423C14.3044 12.6761 14.3488 12.9131 14.3916 13.1422C14.5063 13.6784 14.5794 14.2225 14.6104 14.7696C14.6474 16.0274 14.6403 17.2641 14.6328 18.5733C14.6299 19.0742 14.628 19.58 14.6268 20.0905C12.5219 20.2391 10.4557 20.295 8.31755 20.2636C8.32365 20.1933 8.33021 20.1258 8.3365 20.0594ZM16.2356 14.9724C16.1581 14.0661 15.9517 13.1583 15.752 12.2804L15.6889 12.002C15.5061 11.1927 14.9547 10.7113 14.0944 10.6099C12.0044 10.3636 10.4104 10.4043 8.92586 10.7426C7.63818 11.036 6.96371 11.7918 6.8641 13.053C6.80274 13.83 6.80986 14.6233 6.81679 15.3904C6.81873 15.6036 6.82058 15.8166 6.82113 16.0294C6.82316 16.8323 6.83324 17.6483 6.84294 18.4376C6.84867 18.9046 6.85391 19.3716 6.85865 19.8387C6.85939 19.9236 6.85144 20.0115 6.84211 20.1133C6.83961 20.1405 6.83703 20.1693 6.83444 20.199C5.77916 20.1512 4.89123 20.0763 4.01661 19.8796C3.59561 19.7849 3.11233 19.6658 2.70445 19.4487C1.96298 19.0542 1.61674 18.5117 1.64585 17.7897C1.66996 17.1928 1.67689 16.5537 1.66701 15.8355C1.64853 14.4834 1.6208 13.1087 1.5941 11.7796L1.58144 11.1466C1.56592 10.3799 1.71894 9.73936 2.04911 9.18873C2.21858 8.9059 2.40459 8.61255 2.64919 8.40477C3.89879 7.34343 5.03705 6.40614 6.12873 5.53882C7.31476 4.59725 8.69845 3.50574 10.1126 2.47509C10.6101 2.11249 11.1753 1.83728 11.8718 1.53543C12.0636 1.44938 12.2719 1.40403 12.4829 1.40228C12.8211 1.40228 13.1597 1.52548 13.5059 1.77282C14.4795 2.46886 15.3469 3.30736 16.1856 4.1182C16.4084 4.33358 16.6312 4.54908 16.8563 4.76229C17.0677 4.96249 17.2786 5.16297 17.4894 5.36372C18.2185 6.05722 18.9723 6.77442 19.7315 7.46167C20.4502 8.09369 20.9054 8.96338 21.0099 9.90395C21.1338 10.9649 21.24 11.9229 21.2843 12.9013C21.3457 14.2561 21.3789 15.7433 21.386 17.448C21.3779 17.919 21.3131 18.3874 21.1928 18.8435C21.1511 19.0568 21.043 19.2521 20.8833 19.4026C20.7236 19.5533 20.5202 19.6516 20.3011 19.6843C20.1697 19.7092 20.0384 19.7363 19.9071 19.7635C19.5657 19.8417 19.2194 19.8985 18.8706 19.9335C18.2911 19.9788 17.7119 19.9969 17.0986 20.0165C16.8645 20.024 16.6263 20.0316 16.3828 20.0407C16.3781 19.9191 16.3731 19.8012 16.3683 19.6863C16.356 19.3893 16.3442 19.1088 16.3379 18.83C16.3287 18.4286 16.326 18.0197 16.3234 17.6242C16.317 16.7536 16.3111 15.8536 16.2356 14.9724Z" fill="#333A56"/>
</g>
<defs>
<clipPath id="clip0_50_78">
<rect width="22.9167" height="22" fill="white"/>
</clipPath>
</defs>
</svg>
