<svg width="9" height="9" viewBox="0 0 9 9" fill="none" xmlns="http://www.w3.org/2000/svg">
<g clip-path="url(#clip0_67_139)">
<path d="M4.58298 8.3325C3.48236 8.31024 2.44575 8.08007 1.52354 7.49818C0.659894 6.95303 0.119625 6.19934 0.0393653 5.20288C-0.0188105 4.44366 0.139843 3.6836 0.49874 3.00218C0.717724 2.575 0.984494 2.17566 1.3385 1.83371C2.0543 1.14224 2.93097 0.791442 3.94588 0.731977C4.64237 0.691088 5.32993 0.718653 5.99293 0.954119C6.55729 1.14993 7.08873 1.4218 7.57083 1.76129C8.40346 2.35493 8.88975 3.12831 8.941 4.1247C8.99815 5.23459 8.68623 6.22709 7.88938 7.0669C7.25452 7.73591 6.45094 8.10114 5.528 8.24593C5.21652 8.29452 4.89821 8.30466 4.58298 8.3325ZM4.6334 7.6173C4.7595 7.61061 4.97734 7.60969 5.19233 7.58586C6.00493 7.49592 6.71956 7.21625 7.27441 6.62155C7.99251 5.85172 8.19682 4.94883 8.06404 3.95594C7.99816 3.43217 7.72233 2.95223 7.29333 2.61497C5.94792 1.5285 4.41646 1.22481 2.71506 1.67919C2.66966 1.69843 2.6212 1.71044 2.57165 1.71473C2.44063 1.70463 2.34984 1.7712 2.25959 1.84214C2.16933 1.91309 2.07742 1.98103 1.99481 2.05852C1.30182 2.69782 0.871335 3.5489 0.78004 4.4602C0.732157 4.89056 0.718992 5.32819 0.897651 5.74385C1.12844 6.28222 1.54485 6.73108 2.07932 7.01762C2.83925 7.44098 3.66882 7.61052 4.6334 7.6173Z" fill="#00C897"/>
<path d="M4.01247 3.00097C4.49622 2.99908 4.84062 3.16048 5.10329 3.48108C5.13859 3.52496 5.17624 3.56709 5.21607 3.6073C5.6655 4.05186 5.75976 4.57308 5.55052 5.13824C5.09217 6.3768 3.61278 6.6917 2.6264 6.01056C2.10734 5.65211 1.90548 5.15636 2.04098 4.55617C2.24032 3.67317 3.24459 2.97018 4.01247 3.00097Z" fill="#00C897"/>
</g>
<defs>
<clipPath id="clip0_67_139">
<rect width="8.97196" height="7.65217" fill="white" transform="translate(0 0.695648)"/>
</clipPath>
</defs>
</svg>
