<svg width="9" height="8" viewBox="0 0 9 8" fill="none" xmlns="http://www.w3.org/2000/svg">
<g clip-path="url(#clip0_67_159)">
<path d="M4.58298 7.98397C3.48236 7.9607 2.44575 7.72007 1.52354 7.11173C0.659894 6.5418 0.119625 5.75385 0.0393653 4.71209C-0.0188105 3.91836 0.139843 3.12376 0.49874 2.41137C0.717724 1.96477 0.984494 1.54727 1.3385 1.18978C2.0543 0.466889 2.93097 0.100141 3.94588 0.037972C4.64237 -0.00477497 5.32993 0.0240429 5.99293 0.270211C6.55729 0.474928 7.08873 0.759149 7.57083 1.11407C8.40346 1.7347 8.88975 2.54323 8.941 3.58491C8.99815 4.74525 8.68623 5.78287 7.88938 6.66084C7.25452 7.36026 6.45094 7.74209 5.528 7.89347C5.21652 7.94426 4.89821 7.95487 4.58298 7.98397ZM4.6334 7.23626C4.7595 7.22928 4.97734 7.22831 5.19233 7.2034C6.00493 7.10937 6.71956 6.81699 7.27441 6.19525C7.99251 5.39043 8.19682 4.4465 8.06404 3.40848C7.99816 2.8609 7.72233 2.35914 7.29333 2.00655C5.94792 0.870696 4.41646 0.553202 2.71506 1.02824C2.66966 1.04835 2.6212 1.06091 2.57165 1.06539C2.44063 1.05484 2.34984 1.12443 2.25959 1.1986C2.16933 1.27277 2.07742 1.3438 1.99481 1.42482C1.30182 2.09317 0.871335 2.98294 0.78004 3.93566C0.732157 4.38558 0.718992 4.84311 0.897651 5.27766C1.12844 5.8405 1.54485 6.30976 2.07932 6.60932C2.83925 7.05193 3.66882 7.22918 4.6334 7.23626Z" fill="#F24C4C"/>
<path d="M4.49389 2.29547C4.97764 2.2935 5.32203 2.46222 5.58471 2.7974C5.62001 2.84327 5.65765 2.88732 5.69749 2.92936C6.14692 3.39413 6.24117 3.93904 6.03194 4.52988C5.57359 5.82475 4.09419 6.15395 3.10782 5.44186C2.58876 5.06711 2.38689 4.54883 2.5224 3.92136C2.72173 2.99822 3.726 2.26328 4.49389 2.29547Z" fill="#F24C4C"/>
</g>
<defs>
<clipPath id="clip0_67_159">
<rect width="8.97196" height="8" fill="white"/>
</clipPath>
</defs>
</svg>
