<svg width="9" height="8" viewBox="0 0 9 8" fill="none" xmlns="http://www.w3.org/2000/svg">
<g clip-path="url(#clip0_57_35)">
<path d="M4.58301 7.98397C3.48239 7.9607 2.44578 7.72007 1.52357 7.11173C0.659924 6.5418 0.119656 5.75385 0.0393958 4.71209C-0.01878 3.91836 0.139874 3.12376 0.49877 2.41137C0.717755 1.96477 0.984524 1.54727 1.33853 1.18978C2.05433 0.466889 2.931 0.100141 3.94591 0.037972C4.6424 -0.00477497 5.32996 0.0240429 5.99296 0.270211C6.55732 0.474928 7.08876 0.759149 7.57086 1.11407C8.40349 1.7347 8.88978 2.54323 8.94103 3.58491C8.99818 4.74525 8.68626 5.78287 7.88941 6.66084C7.25455 7.36026 6.45097 7.74209 5.52803 7.89347C5.21655 7.94426 4.89824 7.95487 4.58301 7.98397ZM4.63343 7.23626C4.75953 7.22928 4.97737 7.22831 5.19236 7.2034C6.00496 7.10937 6.71959 6.81699 7.27444 6.19525C7.99254 5.39043 8.19685 4.4465 8.06407 3.40848C7.9982 2.8609 7.72236 2.35914 7.29336 2.00655C5.94796 0.870696 4.4165 0.553202 2.71509 1.02824C2.66969 1.04835 2.62123 1.06091 2.57168 1.06539C2.44066 1.05484 2.34987 1.12443 2.25962 1.1986C2.16936 1.27277 2.07745 1.3438 1.99485 1.42482C1.30185 2.09317 0.871365 2.98294 0.780071 3.93566C0.732188 4.38558 0.719022 4.84311 0.897681 5.27766C1.12848 5.8405 1.54488 6.30976 2.07935 6.60932C2.83928 7.05193 3.66885 7.22918 4.63343 7.23626Z" fill="#F10086"/>
<path d="M4.49386 2.29548C4.97761 2.29351 5.322 2.46223 5.58468 2.79742C5.61998 2.84329 5.65762 2.88733 5.69746 2.92937C6.14689 3.39414 6.24114 3.93905 6.03191 4.52989C5.57356 5.82476 4.09416 6.15396 3.10778 5.44187C2.58873 5.06712 2.38686 4.54884 2.52237 3.92137C2.7217 2.99823 3.72597 2.26329 4.49386 2.29548Z" fill="#F10086"/>
</g>
<defs>
<clipPath id="clip0_57_35">
<rect width="8.97196" height="8" fill="white"/>
</clipPath>
</defs>
</svg>
