<svg width="23" height="20" viewBox="0 0 23 20" fill="none" xmlns="http://www.w3.org/2000/svg">
<g clip-path="url(#clip0_50_88)">
<path d="M3.48466 15.1601C3.83053 15.3964 3.87581 15.5681 3.69516 15.959C3.31722 16.7773 2.88126 17.7471 2.5133 18.7388C2.41526 19.0028 2.40824 19.5187 2.62031 19.7258C2.79385 19.8953 3.08825 19.9186 3.37295 19.941C3.45713 19.9476 3.53659 19.9539 3.61144 19.9637C3.62355 19.9654 3.63573 19.9661 3.64794 19.9661C3.75149 19.9563 3.85121 19.922 3.93883 19.8661L3.97579 19.8468C4.28782 19.6859 4.60014 19.5254 4.91278 19.3654C5.80513 18.9079 6.72779 18.4345 7.62624 17.9517L7.63464 17.9472C8.71578 17.3666 9.73605 16.8178 10.989 17.059C11.0413 17.0673 11.0943 17.0695 11.1472 17.0651C11.1639 17.0643 11.1808 17.0636 11.1973 17.0634C14.1739 17.0364 16.4675 16.4201 18.4154 15.1243C21.3989 13.1393 22.7385 10.2987 22.0907 7.33075C21.491 4.58282 20.3085 2.87301 18.2568 1.78702C16.1708 0.683151 13.8202 0.0488717 11.6381 0.0010376C11.6373 0.00117524 11.6364 0.00117524 11.6357 0.0010376C8.94226 0.0116367 6.69203 0.454237 4.55434 1.39423C1.96294 2.5335 0.542039 4.17027 0.210584 6.39801C0.0677052 7.30424 0.0506625 8.22576 0.159943 9.13662C0.51875 11.9065 1.60635 13.8767 3.48466 15.1601ZM4.39697 17.3997C4.57716 16.7586 4.74719 16.153 4.95925 15.573C5.29191 14.6637 4.80097 14.1529 4.33645 13.8094C3.62992 13.2871 2.91527 12.6859 2.47302 11.8314C1.3309 9.62447 1.17547 7.55709 1.9975 5.5111C2.44335 4.40152 3.34846 3.57766 4.84587 2.91831C6.91269 2.00826 8.9698 1.55328 11.0036 1.55328C13.0284 1.56227 15.0279 2.00426 16.8671 2.84936C18.9906 3.80355 20.1682 5.37731 20.5732 7.8022C20.9058 9.79212 20.353 11.4495 18.8343 13.0179C17.4819 14.4145 15.6584 15.2364 13.096 15.6042C11.8044 15.7896 10.2768 15.9433 8.73934 15.6766C8.54742 15.6441 8.33276 15.764 8.15913 15.861C7.11838 16.4444 6.08742 17.0295 4.99603 17.649L4.19775 18.1019C4.26742 17.8608 4.33303 17.6273 4.39697 17.3998V17.3997Z" fill="#333A56"/>
<path d="M7.04894 9.88816H7.06179C7.20681 9.88769 7.35027 9.85829 7.48376 9.8018C7.61725 9.74521 7.73809 9.66272 7.83919 9.55903C7.92604 9.46963 7.99384 9.36355 8.03848 9.24733C8.08312 9.13107 8.10369 9.00702 8.09894 8.88262C8.08256 8.62909 7.97285 8.39055 7.79086 8.2128C7.60888 8.03504 7.36745 7.93058 7.11298 7.91956C6.97778 7.9204 6.8441 7.94807 6.71968 8.00084C6.59526 8.05359 6.48258 8.1304 6.38816 8.22693C6.28523 8.32503 6.20275 8.44246 6.14548 8.57246C6.0882 8.70246 6.05724 8.84253 6.05439 8.98451C6.05363 9.09988 6.07597 9.21422 6.12012 9.32087C6.16426 9.42751 6.22932 9.52419 6.31146 9.60548C6.51011 9.79332 6.77531 9.89498 7.04894 9.88816Z" fill="#333A56"/>
<path d="M11.4253 10.1439H11.4346C11.6854 10.1418 11.9251 10.0411 12.1018 9.86359C12.2876 9.68341 12.3947 9.43733 12.3998 9.17887C12.402 8.92081 12.2587 8.61568 12.0261 8.38296C11.8683 8.2064 11.6483 8.09746 11.4119 8.07883H11.409C10.9317 8.08159 10.4565 8.60358 10.4495 9.13262C10.4471 9.26488 10.4712 9.39631 10.5202 9.51917C10.5692 9.64212 10.6422 9.7541 10.7351 9.84857C10.8248 9.94092 10.932 10.0146 11.0504 10.0653C11.169 10.1159 11.2963 10.1427 11.4253 10.1439Z" fill="#333A56"/>
<path d="M15.5914 10.0369H15.5975C15.8352 10.0278 16.0615 9.93228 16.2337 9.7685C16.4059 9.60463 16.5122 9.38371 16.5326 9.14724C16.5262 8.91353 16.4278 8.6917 16.2588 8.52971C16.0315 8.27718 15.716 8.12076 15.377 8.09247C15.291 8.09077 15.2056 8.10662 15.1259 8.13891C15.0463 8.1712 14.9741 8.21928 14.9137 8.2803C14.8186 8.37781 14.7439 8.49322 14.694 8.61981C14.6441 8.7464 14.6198 8.88163 14.6229 9.01763C14.6171 9.28057 14.7156 9.53504 14.897 9.72592C15.0783 9.9167 15.3279 10.0286 15.5914 10.0369Z" fill="#333A56"/>
</g>
<defs>
<clipPath id="clip0_50_88">
<rect width="22.2695" height="20" fill="white"/>
</clipPath>
</defs>
</svg>
