<svg width="22" height="22" viewBox="0 0 22 22" fill="none" xmlns="http://www.w3.org/2000/svg">
<path d="M14.0927 18.6901C13.9382 19.7269 13.6336 20.6811 12.7221 21.3038C12.1025 21.7402 11.3557 21.957 10.5997 21.9198C8.86828 21.8377 7.78157 20.8753 7.41126 19.0576C7.26223 19.0576 7.10011 19.0529 6.93828 19.0584C5.13198 19.1207 3.32594 19.1878 1.51946 19.2433C1.25943 19.2506 0.99951 19.2261 0.745344 19.1705C0.567644 19.128 0.401584 19.0463 0.259294 18.9313C0.204791 18.8936 0.160441 18.843 0.130209 18.7839C0.0999757 18.7248 0.0848122 18.6591 0.086071 18.5927C0.0873297 18.5263 0.104995 18.4612 0.137445 18.4033C0.169893 18.3455 0.216124 18.2966 0.272014 18.261C1.65931 17.2912 2.21802 15.8168 2.67966 14.2888C3.04721 13.0719 3.12391 11.8115 3.16404 10.5491C3.21458 8.95537 3.47095 7.40962 4.06301 5.91473C4.83403 3.96773 6.23236 2.71706 8.15925 2.02073C8.43485 1.92118 8.56876 1.80046 8.62602 1.49847C8.81122 0.5216 9.41183 0.0472397 10.3966 0.0415086C11.3578 0.0363321 12.1021 0.602204 12.2872 1.51973C12.2996 1.63039 12.3444 1.7349 12.4158 1.82006C12.4872 1.90522 12.5822 1.96726 12.6886 1.9983C14.1718 2.56854 15.2975 3.5577 16.1215 4.92401C17.2241 6.75241 17.8818 8.7324 18.2418 10.8272C18.3589 11.5083 18.5214 12.1814 18.6578 12.8591C18.9816 14.4675 19.8347 15.7006 21.2176 16.5813C21.4695 16.7485 21.6767 16.9751 21.8211 17.2413C22.0212 17.6117 21.8664 18.0011 21.4661 18.1365C21.0905 18.261 20.7 18.3345 20.305 18.3551C18.378 18.4606 16.4496 18.5408 14.5218 18.6324C14.3873 18.6394 14.2536 18.6681 14.0927 18.6901ZM16.724 11.9508C16.7572 11.8667 16.7807 11.8369 16.7772 11.8109C16.7418 11.5521 16.701 11.2945 16.6634 11.0361C16.3841 9.11779 15.8247 7.29946 14.8365 5.61747C13.6751 3.64052 11.6699 2.66483 9.43374 3.10493C7.79801 3.42679 6.45383 4.24267 5.68733 5.78664C5.34942 6.46763 5.04296 7.19872 4.9117 7.9409C4.6986 9.14618 4.63621 10.3787 4.52152 11.6008C4.48331 12.0075 4.47989 12.4176 4.45706 12.9022C8.58809 12.5806 12.6776 12.3827 16.724 11.9508ZM2.62959 17.8622C8.08007 17.4748 13.4263 17.3615 18.833 16.7722C17.8672 15.7727 17.444 14.5933 17.0994 13.3922L4.33373 13.8914C4.16869 15.3141 3.61922 16.6267 2.62959 17.8622ZM8.40686 18.9779C8.63239 20.0656 9.6403 20.7311 10.8056 20.6091C11.8673 20.4982 12.4868 19.8426 12.4968 18.7517L8.40686 18.9779ZM9.52984 1.59168L11.0791 1.59168C10.8646 1.16295 10.5275 1.10453 10.1738 1.11627C9.87061 1.12644 9.6113 1.23441 9.53011 1.59168H9.52984Z" fill="#333A56"/>
</svg>
